<?xml version="1.0" encoding="UTF-8"?><svg id="uuid-5ecfe070-0512-4ba9-b13c-e554cc8bd1c0"
    xmlns="http://www.w3.org/2000/svg" viewBox="0 0 72 72">
    <path
        d="M.44,71.71c.76-2.78,1.49-5.42,2.21-8.07,.88-3.23,1.77-6.45,2.62-9.68,.09-.34,.04-.8-.13-1.1C-2.11,39.5-.39,23.58,9.7,12.18,15.85,5.25,23.62,1.26,32.87,.44c15.62-1.39,29.76,7.13,35.94,21.52,5.89,13.73,2.09,30.39-9.18,40.21-6.95,6.06-15.03,9.07-24.25,8.93-5.54-.09-10.77-1.47-15.7-4.03-.29-.15-.72-.17-1.04-.09-5.8,1.5-11.6,3.02-17.4,4.54-.21,.06-.43,.1-.8,.19Zm8.51-8.42c.23-.05,.35-.07,.46-.1,3.21-.84,6.43-1.67,9.63-2.54,.72-.2,1.28-.13,1.94,.25,8.64,4.99,17.66,5.73,26.82,1.77,12.71-5.49,19.56-18.42,17.31-32.15-2.18-13.3-14.03-23.76-27.53-24.26-7.46-.28-14.17,1.84-19.95,6.57-6.68,5.47-10.33,12.59-10.86,21.2-.4,6.41,1.23,12.33,4.73,17.73,.31,.48,.37,.89,.22,1.44-.93,3.31-1.83,6.64-2.76,10.08Z" />
    <path
        d="M24.62,19.39c1.62-.42,2.34,.54,2.87,1.92,.79,2.06,1.66,4.08,2.53,6.11,.31,.71,.3,1.34-.16,1.96-.71,.95-1.4,1.92-2.15,2.84-.48,.59-.5,1.12-.12,1.76,2.89,4.86,6.91,8.38,12.17,10.47,.72,.29,1.3,.18,1.78-.43,.88-1.1,1.81-2.18,2.65-3.31,.49-.66,1.06-.92,1.79-.58,2.53,1.18,5.06,2.39,7.56,3.63,.26,.13,.51,.58,.52,.89,.07,2.63-.69,4.84-3.05,6.36-2.88,1.86-5.9,2.06-9.12,1.16-8.07-2.25-14.19-7.17-19.11-13.79-1.77-2.38-3.46-4.79-4.22-7.71-.92-3.54-.36-6.76,2.06-9.61,1.05-1.24,2.25-2.02,3.99-1.68Z" />
    </svg>
