<svg id="uuid-a3374595-c3af-4f6e-a210-9926ae40e4d4"
    xmlns="http://www.w3.org/2000/svg" viewBox="0 0 72 72">
    <path
        d="M36.03,.29c9.57,.01,17.33,7.78,17.32,17.34,0,9.53-7.85,17.35-17.37,17.33-9.54-.02-17.33-7.84-17.32-17.38,0-9.56,7.79-17.3,17.37-17.29Zm-.05,29.68c6.83,.02,12.39-5.51,12.42-12.34,.03-6.78-5.57-12.4-12.37-12.41-6.79-.01-12.39,5.55-12.42,12.36-.03,6.79,5.54,12.37,12.37,12.39Z" />
    <path
        d="M32.19,45.11c11.32-1.72,22.78,4.26,28.09,14.65,1.92,3.75,2.87,7.74,2.96,11.95h4.96s0-.04,0-.06c-.03-1.04-.08-2.08-.19-3.11-1.81-16.24-15.57-28.58-31.91-28.63-17.57-.06-32.02,14.23-32.31,31.79h4.99c.09-1.37,.12-2.75,.35-4.1,1.95-11.7,11.19-20.69,23.06-22.5Z"
        style="fill:#1d1d1b;" /></svg>
